<svg width="291" height="400" viewBox="0 0 291 400" fill="none" xmlns="http://www.w3.org/2000/svg">
<path d="M102.29 77.6673C103.753 77.5265 105.229 77.7083 106.615 78.1998C108 78.6913 109.261 79.4806 110.309 80.5121C111.356 81.5436 112.165 82.7923 112.677 84.17C113.19 85.5478 113.394 87.0213 113.276 88.4866L145.983 102.882L130.382 112.952L101.714 97.7387C99.2657 97.3767 97.035 96.1291 95.445 94.2324C93.8549 92.3356 93.0158 89.9215 93.0867 87.4474C93.1577 84.9733 94.1338 82.6113 95.8299 80.8087C97.5261 79.0062 99.8244 77.8885 102.29 77.6674V77.6673Z" fill="#A0616A"/>
<path d="M234.221 59.7104C247.786 59.7104 258.782 48.7141 258.782 35.1494C258.782 21.5847 247.786 10.5884 234.221 10.5884C220.657 10.5884 209.66 21.5847 209.66 35.1494C209.66 48.7141 220.657 59.7104 234.221 59.7104Z" fill="#A0616A"/>
<path d="M189.769 385.364L177.509 385.363L171.677 338.075L189.771 338.076L189.769 385.364Z" fill="#A0616A"/>
<path d="M192.896 397.248L153.365 397.246V396.746C153.365 394.726 153.763 392.725 154.536 390.858C155.31 388.991 156.443 387.295 157.872 385.867C159.301 384.438 160.997 383.304 162.864 382.531C164.73 381.758 166.731 381.36 168.752 381.36H168.753L192.897 381.361L192.896 397.248Z" fill="#2F2E41"/>
<path d="M240.769 385.364L228.509 385.363L222.677 338.075L240.771 338.076L240.769 385.364Z" fill="#A0616A"/>
<path d="M243.896 397.248L204.365 397.246V396.746C204.365 394.726 204.763 392.725 205.536 390.858C206.31 388.991 207.443 387.295 208.872 385.867C210.301 384.438 211.997 383.304 213.864 382.531C215.73 381.758 217.731 381.36 219.752 381.36H219.753L243.897 381.361L243.896 397.248Z" fill="#2F2E41"/>
<path d="M240.188 375.292C240.005 375.292 239.821 375.28 239.639 375.258L221.693 373.049C220.642 372.921 219.67 372.426 218.949 371.651C218.227 370.876 217.802 369.871 217.749 368.813L212.52 251.05C212.502 250.716 212.373 250.397 212.153 250.145C211.933 249.892 211.636 249.721 211.307 249.657C210.979 249.593 210.638 249.641 210.34 249.793C210.042 249.945 209.804 250.193 209.662 250.496L196.228 295.28L193.461 367.217C193.438 367.837 193.286 368.446 193.015 369.005C192.745 369.563 192.362 370.06 191.89 370.463C191.418 370.867 190.868 371.168 190.274 371.349C189.68 371.529 189.055 371.585 188.439 371.512L172.898 369.683C171.787 369.555 170.763 369.017 170.028 368.174C169.293 367.331 168.9 366.244 168.925 365.126L170.244 297.412L180.773 191.12L181.244 191.138L245.266 193.605L244.689 370.807C244.685 371.998 244.209 373.138 243.365 373.979C242.521 374.82 241.379 375.292 240.188 375.292H240.188Z" fill="#2F2E41"/>
<path d="M242.839 203.318C242.8 203.318 242.761 203.318 242.722 203.317L178.243 201.628C177.611 201.611 176.99 201.462 176.419 201.189C175.849 200.916 175.343 200.526 174.933 200.045C174.523 199.563 174.22 199.001 174.042 198.394C173.865 197.787 173.817 197.15 173.902 196.523L186.292 105.332C187.066 99.1745 189.129 93.2495 192.348 87.9437C195.567 82.6379 199.869 78.0706 204.972 74.5399C209.462 71.4494 214.56 69.3555 219.926 68.3988C225.291 67.442 230.8 67.6447 236.08 68.993C258.587 74.6962 272.088 98.8632 266.178 122.865L247.21 199.894C246.965 200.869 246.402 201.735 245.611 202.355C244.82 202.975 243.845 203.314 242.839 203.318V203.318Z" fill="#FE5740"/>
<path d="M158.249 130.904C154 130.909 149.842 129.674 146.285 127.349L108.683 102.68C108.132 102.319 107.668 101.841 107.322 101.281C106.976 100.721 106.757 100.092 106.681 99.438C106.605 98.7842 106.673 98.1216 106.881 97.497C107.089 96.8724 107.431 96.301 107.884 95.8231L113.548 89.8426C114.166 89.1871 114.967 88.7327 115.847 88.5389C116.726 88.345 117.644 88.4206 118.48 88.7557L160.482 105.481L199.391 77.6952C201.21 76.396 203.279 75.4886 205.467 75.0304C207.656 74.5722 209.915 74.5732 212.103 75.0333C214.291 75.4934 216.359 76.4025 218.177 77.7032C219.996 79.004 221.524 80.6679 222.666 82.5898C223.808 84.5118 224.539 86.6498 224.812 88.8687C225.085 91.0876 224.894 93.339 224.253 95.4805C223.611 97.622 222.531 99.6069 221.083 101.31C219.634 103.012 217.848 104.396 215.837 105.373L167.749 128.73C164.787 130.164 161.539 130.908 158.249 130.904V130.904Z" fill="#FE5740"/>
<path d="M242.732 58.6378C246.922 59.6272 251.977 60.3864 254.972 57.2929C255.502 56.7089 255.976 56.0761 256.388 55.4028L260.303 49.4254C263.302 44.8465 266.354 40.1481 267.623 34.8236C268.353 31.7641 268.467 28.5901 267.959 25.486C267.452 22.382 266.332 19.4097 264.666 16.742C263 14.0742 260.821 11.764 258.254 9.94574C255.688 8.12743 252.786 6.83719 249.716 6.14999C243.871 4.84117 238.151 2.58922 232.174 3C226.198 3.41078 219.19 3.27592 214.174 0C214.487 1.46046 216.177 7.91341 216.177 7.91341C216.177 7.91341 208.635 14.8321 207.123 16.5572C209.103 15.6796 211.257 15.2675 213.421 15.3526C215.585 15.4378 217.701 16.0179 219.605 17.0485C221.51 18.079 223.153 19.5325 224.408 21.2973C225.663 23.062 226.497 25.0911 226.846 27.2285C227.274 29.8543 227.022 32.7665 228.582 34.9216C230.066 36.9714 232.728 37.6896 234.964 38.8732C238.189 40.71 240.65 43.6386 241.906 47.1307C243.161 50.6227 243.128 54.4485 241.811 57.9179L242.732 58.6378Z" fill="#2F2E41"/>
<path d="M213.242 212.115H9.65295C7.0937 212.112 4.64011 211.094 2.83044 209.285C1.02078 207.475 0.00287969 205.021 0 202.462V98.9123C0.00287969 96.353 1.02078 93.8994 2.83044 92.0898C4.64011 90.2801 7.0937 89.2622 9.65295 89.2593H213.242C215.802 89.2622 218.255 90.2801 220.065 92.0898C221.875 93.8994 222.893 96.353 222.895 98.9123V202.462C222.892 205.021 221.875 207.475 220.065 209.285C218.255 211.094 215.802 212.112 213.242 212.115V212.115Z" fill="#CCCCCC"/>
<path d="M210.902 205.094H11.9931C10.6747 205.093 9.4107 204.569 8.47845 203.636C7.54621 202.704 7.0218 201.44 7.02032 200.122V101.252C7.0218 99.9336 7.54621 98.6696 8.47845 97.7374C9.4107 96.8051 10.6747 96.2808 11.9931 96.2793H210.902C212.221 96.2808 213.485 96.8051 214.417 97.7374C215.349 98.6696 215.874 99.9336 215.875 101.252V200.122C215.874 201.44 215.349 202.704 214.417 203.636C213.485 204.569 212.221 205.093 210.902 205.094V205.094Z" fill="white"/>
<path d="M199.383 230.057L177.013 207.687L205.693 208.412V227.443C205.7 228.176 205.487 228.894 205.079 229.503C204.672 230.113 204.091 230.585 203.411 230.858C202.955 231.049 202.467 231.147 201.973 231.149C201.49 231.147 201.013 231.05 200.568 230.862C200.124 230.675 199.721 230.401 199.383 230.057V230.057Z" fill="#CCCCCC"/>
<path d="M186.684 146.253H86.0593C84.818 146.253 83.6275 145.76 82.7498 144.882C81.8721 144.004 81.379 142.814 81.379 141.573C81.379 140.332 81.8721 139.141 82.7498 138.263C83.6275 137.386 84.818 136.893 86.0593 136.893H186.684C187.925 136.893 189.116 137.386 189.993 138.263C190.871 139.141 191.364 140.332 191.364 141.573C191.364 142.814 190.871 144.004 189.993 144.882C189.116 145.76 187.925 146.253 186.684 146.253V146.253Z" fill="#CCCCCC"/>
<path d="M153.922 126.362H86.0593C85.4441 126.363 84.8347 126.243 84.2661 126.008C83.6975 125.773 83.1807 125.429 82.7454 124.994C82.3101 124.559 81.9647 124.043 81.7291 123.475C81.4934 122.907 81.3722 122.297 81.3722 121.682C81.3722 121.067 81.4934 120.458 81.7291 119.89C81.9647 119.321 82.3101 118.805 82.7454 118.37C83.1807 117.936 83.6975 117.591 84.2661 117.356C84.8347 117.121 85.4441 117.001 86.0593 117.002H153.922C155.164 117.002 156.354 117.495 157.232 118.373C158.109 119.25 158.603 120.441 158.603 121.682C158.603 122.923 158.109 124.114 157.232 124.992C156.354 125.869 155.164 126.362 153.922 126.362Z" fill="#CCCCCC"/>
<path d="M44.405 146.253C52.4826 146.253 59.0307 139.705 59.0307 131.628C59.0307 123.55 52.4826 117.002 44.405 117.002C36.3275 117.002 29.7794 123.55 29.7794 131.628C29.7794 139.705 36.3275 146.253 44.405 146.253Z" fill="#FD2F6E"/>
<path d="M155.674 184.372C158.259 184.372 160.355 182.277 160.355 179.692C160.355 177.107 158.259 175.012 155.674 175.012C153.09 175.012 150.994 177.107 150.994 179.692C150.994 182.277 153.09 184.372 155.674 184.372Z" fill="#E6E6E6"/>
<path d="M172.055 184.372C174.64 184.372 176.735 182.277 176.735 179.692C176.735 177.107 174.64 175.012 172.055 175.012C169.47 175.012 167.375 177.107 167.375 179.692C167.375 182.277 169.47 184.372 172.055 184.372Z" fill="#E6E6E6"/>
<path d="M188.436 184.372C191.021 184.372 193.116 182.277 193.116 179.692C193.116 177.107 191.021 175.012 188.436 175.012C185.851 175.012 183.756 177.107 183.756 179.692C183.756 182.277 185.851 184.372 188.436 184.372Z" fill="#E6E6E6"/>
<path d="M210.09 199.801C210.252 198.339 210.732 196.931 211.496 195.676C212.261 194.42 213.291 193.348 214.515 192.533C215.74 191.719 217.127 191.183 218.581 190.963C220.034 190.744 221.518 190.845 222.928 191.261L243.712 162.191L250.377 179.524L229.619 204.471C228.763 206.794 227.086 208.722 224.904 209.89C222.722 211.059 220.187 211.386 217.78 210.81C215.373 210.234 213.26 208.796 211.843 206.766C210.426 204.737 209.802 202.259 210.09 199.801H210.09Z" fill="#A0616A"/>
<path d="M233.897 198.232C233.57 198.259 233.241 198.251 232.916 198.207C232.264 198.12 231.638 197.89 231.084 197.534C230.53 197.178 230.062 196.705 229.711 196.147L225.319 189.179C224.836 188.418 224.594 187.53 224.624 186.629C224.654 185.728 224.955 184.858 225.487 184.131L252.089 147.577L234.798 103.001C233.254 99.0794 233.312 94.7075 234.961 90.8281C236.609 86.9486 239.716 83.8723 243.612 82.262V82.262C245.813 81.3389 248.191 80.9149 250.576 81.0208C252.961 81.1266 255.292 81.7596 257.403 82.8741C259.513 83.9887 261.351 85.5571 262.783 87.4666C264.215 89.3762 265.206 91.5793 265.685 93.9177L276.413 146.291C277.159 149.985 276.939 153.808 275.774 157.392C274.609 160.975 272.538 164.197 269.762 166.746L236.552 197.071C235.82 197.741 234.886 198.149 233.897 198.232V198.232Z" fill="#FE5740"/>
<path d="M289.719 399.653H78.7194C78.4541 399.653 78.1998 399.547 78.0123 399.36C77.8247 399.172 77.7194 398.918 77.7194 398.653C77.7194 398.388 77.8247 398.133 78.0123 397.946C78.1998 397.758 78.4541 397.653 78.7194 397.653H289.719C289.985 397.653 290.239 397.758 290.427 397.946C290.614 398.133 290.719 398.388 290.719 398.653C290.719 398.918 290.614 399.172 290.427 399.36C290.239 399.547 289.985 399.653 289.719 399.653Z" fill="#CCCCCC"/>
</svg>
