<svg width="316" height="413" viewBox="0 0 316 413" fill="none" xmlns="http://www.w3.org/2000/svg">
<path d="M87.2299 352.854C82.1236 354.649 76.641 355.099 71.3105 354.16C65.9799 353.221 60.981 350.925 56.7954 347.493C46.1356 338.546 42.7934 323.806 40.074 310.157L32.0305 269.787L48.8704 281.382C60.9806 289.721 73.3637 298.327 81.7487 310.405C90.1338 322.483 93.7939 338.971 87.0567 352.04" fill="#FFD9C0"/>
<path d="M85.7904 401.731C87.4948 389.316 89.2474 376.742 88.0519 364.193C86.9901 353.049 83.5902 342.165 76.6684 333.24C72.9944 328.512 68.5237 324.461 63.4575 321.269C62.1364 320.435 60.9205 322.529 62.2359 323.359C71.0019 328.899 77.7821 337.08 81.5989 346.722C85.8145 357.444 86.4915 369.132 85.765 380.522C85.3257 387.411 84.3946 394.253 83.4564 401.088C83.3824 401.397 83.4286 401.722 83.5855 401.999C83.7424 402.275 83.9984 402.482 84.3017 402.576C84.6111 402.66 84.941 402.618 85.2197 402.46C85.4984 402.301 85.7035 402.04 85.7904 401.731Z" fill="#F2F2F2"/>
<path d="M69.3738 379.762C67.1838 383.091 64.1735 385.799 60.6329 387.626C57.0923 389.454 53.1407 390.339 49.1589 390.196C38.9258 389.71 30.3946 382.568 22.7149 375.787L0 355.732L15.0335 355.012C25.8447 354.495 36.9348 354.012 47.2321 357.346C57.5294 360.68 67.0261 368.704 68.9091 379.362" fill="#FFD9C0"/>
<path d="M90.6073 408.868C82.4036 394.352 72.8882 378.219 55.8856 373.063C51.158 371.634 46.2009 371.123 41.2811 371.555C39.7305 371.689 40.1177 374.079 41.6655 373.946C49.9121 373.261 58.1428 375.438 64.9719 380.112C71.5435 384.585 76.6601 390.803 80.9908 397.398C83.6435 401.438 86.0196 405.648 88.3962 409.854C89.1557 411.198 91.3756 410.227 90.6073 408.868V408.868Z" fill="#F2F2F2"/>
<path d="M310.489 118.078L131.636 266.313C129.385 268.173 126.489 269.066 123.581 268.794C120.674 268.521 117.993 267.107 116.127 264.861L40.7321 173.892C38.8713 171.642 37.9791 168.745 38.2512 165.838C38.5234 162.931 39.9377 160.25 42.1839 158.384L221.037 10.1496C223.288 8.2887 226.184 7.39647 229.092 7.66863C231.999 7.9408 234.68 9.35512 236.546 11.6013L311.941 102.57C313.801 104.82 314.694 107.717 314.422 110.624C314.149 113.532 312.735 116.212 310.489 118.078Z" fill="#CCCCCC"/>
<path d="M303.322 113.615L128.58 258.441C127.421 259.4 125.928 259.86 124.431 259.719C122.933 259.579 121.552 258.851 120.591 257.693L48.6034 170.836C47.6447 169.677 47.1851 168.185 47.3253 166.687C47.4655 165.189 48.1941 163.809 49.3512 162.847L224.093 18.0206C225.252 17.062 226.744 16.6023 228.242 16.7425C229.74 16.8827 231.121 17.6113 232.082 18.7685L304.069 105.625C305.028 106.785 305.488 108.277 305.348 109.775C305.207 111.272 304.479 112.653 303.322 113.615Z" fill="white"/>
<path d="M311.377 143.931L275.437 140.567L301.16 120.322L315.017 137.041C315.557 137.679 315.892 138.466 315.978 139.297C316.064 140.129 315.897 140.967 315.499 141.702C315.238 142.201 314.88 142.644 314.447 143.005C314.022 143.355 313.532 143.617 313.005 143.776C312.478 143.935 311.925 143.988 311.377 143.931Z" fill="#CCCCCC"/>
<path d="M239.203 79.5562L150.804 152.821C150.264 153.269 149.642 153.606 148.972 153.813C148.302 154.019 147.597 154.092 146.899 154.027C146.201 153.961 145.522 153.759 144.902 153.432C144.282 153.104 143.733 152.658 143.285 152.118C142.838 151.578 142.501 150.955 142.294 150.285C142.087 149.615 142.014 148.91 142.08 148.212C142.145 147.514 142.347 146.835 142.675 146.215C143.003 145.595 143.449 145.046 143.989 144.598L232.388 71.3331C232.928 70.8856 233.55 70.5488 234.221 70.342C234.891 70.1352 235.595 70.0624 236.293 70.1277C236.991 70.1931 237.67 70.3954 238.29 70.723C238.91 71.0505 239.46 71.497 239.907 72.037C240.355 72.5769 240.691 73.1997 240.898 73.8698C241.105 74.5399 241.178 75.2441 241.112 75.9424C241.047 76.6406 240.845 77.3191 240.517 77.9392C240.19 78.5593 239.743 79.1087 239.203 79.5562Z" fill="#CCCCCC"/>
<path d="M195.94 85.9356L136.322 135.347C135.231 136.251 133.827 136.684 132.416 136.552C131.006 136.42 129.706 135.734 128.802 134.643C127.899 133.553 127.465 132.148 127.597 130.738C127.729 129.328 128.416 128.028 129.506 127.124L189.124 77.7125C190.215 76.8087 191.619 76.3751 193.03 76.5071C194.44 76.6392 195.74 77.3259 196.643 78.4164C197.547 79.5068 197.981 80.9116 197.849 82.3218C197.717 83.7319 197.03 85.0319 195.94 85.9356Z" fill="#CCCCCC"/>
<path d="M103.562 186.989C112.779 186.989 120.25 179.518 120.25 170.301C120.25 161.085 112.779 153.613 103.562 153.613C94.3457 153.613 86.8742 161.085 86.8742 170.301C86.8742 179.518 94.3457 186.989 103.562 186.989Z" fill="#FE5740"/>
<path d="M236.308 136.85C239.257 136.85 241.648 134.459 241.648 131.51C241.648 128.561 239.257 126.17 236.308 126.17C233.359 126.17 230.968 128.561 230.968 131.51C230.968 134.459 233.359 136.85 236.308 136.85Z" fill="#E6E6E6"/>
<path d="M250.699 124.923C253.648 124.923 256.039 122.533 256.039 119.583C256.039 116.634 253.648 114.243 250.699 114.243C247.749 114.243 245.358 116.634 245.358 119.583C245.358 122.533 247.749 124.923 250.699 124.923Z" fill="#E6E6E6"/>
<path d="M265.089 112.997C268.038 112.997 270.429 110.606 270.429 107.657C270.429 104.707 268.038 102.316 265.089 102.316C262.14 102.316 259.749 104.707 259.749 107.657C259.749 110.606 262.14 112.997 265.089 112.997Z" fill="#E6E6E6"/>
<path d="M179.974 399.569L192.234 399.568L198.066 352.28L179.972 352.281L179.974 399.569Z" fill="#FFB8B8"/>
<path d="M176.847 395.566L200.991 395.565H200.992C203.012 395.565 205.013 395.963 206.88 396.736C208.746 397.509 210.443 398.643 211.871 400.071C213.3 401.5 214.434 403.196 215.207 405.063C215.98 406.93 216.378 408.931 216.378 410.951V411.451L176.848 411.453L176.847 395.566Z" fill="#2F2E41"/>
<path d="M135.974 399.569L148.234 399.568L154.066 352.28L135.972 352.281L135.974 399.569Z" fill="#FFB8B8"/>
<path d="M132.847 395.566L156.991 395.565H156.992C159.012 395.565 161.013 395.963 162.88 396.736C164.746 397.509 166.443 398.643 167.871 400.071C169.3 401.5 170.434 403.196 171.207 405.063C171.98 406.93 172.378 408.931 172.378 410.951V411.451L132.848 411.453L132.847 395.566Z" fill="#2F2E41"/>
<path d="M148.277 385.1H148.274L137.849 385.097C136.682 385.101 135.56 384.65 134.721 383.84C133.882 383.03 133.391 381.925 133.354 380.759L133.026 371.638C130.39 298.697 127.665 223.273 144.543 189.373L144.675 189.106L200.555 187.084L211.774 289.995C212.253 294.385 212.078 298.821 211.254 303.159L196.424 381.308C196.223 382.367 195.648 383.319 194.805 383.991C193.961 384.662 192.904 385.008 191.826 384.966L180.116 384.586C179.503 384.562 178.901 384.412 178.348 384.147C177.794 383.882 177.301 383.506 176.898 383.043C176.495 382.58 176.191 382.039 176.005 381.455C175.818 380.87 175.754 380.253 175.814 379.643L185.013 307.363C185.327 304.244 185.043 301.093 184.179 298.079L172.738 258.085C172.644 257.754 172.438 257.466 172.156 257.269C171.875 257.071 171.534 256.977 171.19 257.001C170.847 257.025 170.523 257.167 170.272 257.401C170.02 257.636 169.857 257.95 169.81 258.291L152.733 381.219C152.58 382.293 152.046 383.276 151.227 383.989C150.409 384.701 149.362 385.096 148.277 385.1Z" fill="#2F2E41"/>
<path d="M154.959 84.1963C168.524 84.1963 179.52 73.1999 179.52 59.6353C179.52 46.0706 168.524 35.0742 154.959 35.0742C141.394 35.0742 130.398 46.0706 130.398 59.6353C130.398 73.1999 141.394 84.1963 154.959 84.1963Z" fill="#FFB8B8"/>
<path d="M197.936 194.68H147.113C146.467 194.68 145.829 194.541 145.241 194.273C144.654 194.004 144.131 193.612 143.709 193.124C143.286 192.635 142.974 192.061 142.793 191.441C142.612 190.821 142.567 190.169 142.66 189.53L145.171 172.334L130.427 131.78C128.905 127.594 128.339 123.119 128.772 118.686C129.204 114.252 130.623 109.972 132.926 106.158C135.228 102.344 138.355 99.0947 142.077 96.6472C145.799 94.1996 150.022 92.6164 154.436 92.0135C160.724 91.1365 167.128 92.2958 172.71 95.3216C178.292 98.3475 182.759 103.081 185.456 108.829L188.695 115.72L202.361 189.36C202.481 190.01 202.457 190.678 202.29 191.317C202.124 191.956 201.818 192.55 201.396 193.058C200.974 193.566 200.445 193.974 199.847 194.255C199.249 194.535 198.597 194.681 197.936 194.68H197.936Z" fill="#FD2F6E"/>
<path d="M90.6495 237.817C92.1793 237.462 93.6126 236.775 94.8484 235.806C96.0843 234.837 97.0926 233.609 97.8023 232.208C98.5121 230.807 98.906 229.267 98.9564 227.697C99.0069 226.128 98.7125 224.566 98.0941 223.122L137.696 133.65L115.042 127.944L83.2376 217.687C80.8813 218.886 79.0469 220.909 78.082 223.371C77.1171 225.832 77.0888 228.563 78.0024 231.044C78.916 233.525 80.708 235.585 83.039 236.833C85.3699 238.082 88.0778 238.432 90.6494 237.817H90.6495Z" fill="#FFB8B8"/>
<path d="M132.335 149.652L110.302 139.338C109.675 139.045 109.119 138.62 108.671 138.092C108.223 137.564 107.894 136.946 107.707 136.279C107.52 135.613 107.478 134.914 107.585 134.23C107.692 133.546 107.946 132.894 108.328 132.317L121.718 112.094C123.239 108.897 125.965 106.433 129.299 105.243C132.633 104.052 136.303 104.231 139.505 105.742C142.707 107.252 145.18 109.97 146.381 113.3C147.583 116.63 147.416 120.3 145.916 123.507L138.992 146.67C138.794 147.333 138.455 147.946 137.998 148.466C137.541 148.986 136.978 149.402 136.346 149.685C135.715 149.968 135.029 150.112 134.337 150.106C133.645 150.1 132.962 149.945 132.335 149.652H132.335Z" fill="#FD2F6E"/>
<path d="M255.851 7.5784C256.329 9.07431 256.473 10.6569 256.274 12.2147C256.074 13.7724 255.536 15.2675 254.696 16.5946C253.856 17.9217 252.735 19.0485 251.413 19.8957C250.091 20.7428 248.598 21.2897 247.042 21.4978L190.473 101.332L173.97 84.796L234.765 11.521C234.589 8.8827 235.386 6.27144 237.007 4.18197C238.627 2.0925 240.958 0.669992 243.557 0.184018C246.156 -0.301956 248.843 0.182367 251.109 1.54519C253.375 2.90802 255.062 5.05468 255.851 7.5784Z" fill="#FFB8B8"/>
<path d="M203.554 91.9615C203.635 92.6489 203.567 93.3457 203.354 94.0043C203.14 94.6629 202.788 95.2677 202.32 95.7775L185.97 113.587C183.985 116.519 180.917 118.545 177.44 119.219C173.964 119.894 170.361 119.162 167.423 117.184C164.485 115.207 162.451 112.145 161.767 108.67C161.084 105.195 161.806 101.591 163.775 98.6474L174.287 76.7899C174.588 76.1661 175.019 75.6143 175.551 75.1721C176.084 74.7299 176.705 74.4077 177.373 74.2274C178.042 74.047 178.741 74.0129 179.424 74.1272C180.106 74.2415 180.756 74.5016 181.33 74.8898L201.472 88.5331C202.045 88.9211 202.528 89.4282 202.887 90.0199C203.247 90.6115 203.474 91.2738 203.554 91.9615Z" fill="#FD2F6E"/>
<path d="M187.23 49.3545C187.215 47.1317 186.906 44.9206 186.312 42.7785C182.355 28.1561 167.747 19.3799 153.087 21.5823C150.236 20.7648 147.284 20.3515 144.318 20.3545C136.773 20.3545 129.477 23.0525 123.747 27.9612C118.017 32.8699 114.23 39.6658 113.072 47.1215L101.23 123.355H165.23L175.564 56.829C175.948 54.3568 176.038 51.8479 175.833 49.3545H187.23Z" fill="#2F2E41"/>
<path d="M266.776 412.007H55.7756C55.5104 412.007 55.2561 411.902 55.0685 411.714C54.881 411.527 54.7756 411.273 54.7756 411.007C54.7756 410.742 54.881 410.488 55.0685 410.3C55.2561 410.113 55.5104 410.007 55.7756 410.007H266.776C267.041 410.007 267.295 410.113 267.483 410.3C267.67 410.488 267.776 410.742 267.776 411.007C267.776 411.273 267.67 411.527 267.483 411.714C267.295 411.902 267.041 412.007 266.776 412.007Z" fill="#CCCCCC"/>
</svg>
