<svg width="48" height="48" viewBox="0 0 48 48" fill="none" xmlns="http://www.w3.org/2000/svg">
<mask id="mask0_42_8" style="mask-type:alpha" maskUnits="userSpaceOnUse" x="4" y="3" width="41" height="42">
<path d="M38 21L43 30L38 31V37H35L29 36L28 43H13L11 32.619C7.92 29.703 6 25.576 6 21C6 12.163 13.163 5 22 5C30.837 5 38 12.163 38 21Z" fill="white" stroke="white" stroke-width="4" stroke-linecap="round" stroke-linejoin="round"/>
<path d="M17 19C17 18.0111 17.2932 17.0444 17.8427 16.2222C18.3921 15.3999 19.173 14.759 20.0866 14.3806C21.0002 14.0022 22.0055 13.9031 22.9755 14.0961C23.9454 14.289 24.8363 14.7652 25.5355 15.4645C26.2348 16.1637 26.711 17.0546 26.9039 18.0246C27.0969 18.9945 26.9978 19.9998 26.6194 20.9134C26.241 21.8271 25.6001 22.6079 24.7779 23.1574C23.9556 23.7068 22.9889 24 22 24V27M22 33V34" stroke="black" stroke-width="4" stroke-linecap="round" stroke-linejoin="round"/>
</mask>
<g mask="url(#mask0_42_8)">
<path d="M0 0H48V48H0V0Z" fill="#FD2F6E"/>
</g>
<g clip-path="url(#clip0_42_8)">
<path d="M24.1684 11.2469C23.678 9.58437 21.322 9.58437 20.8316 11.2469L20.7128 11.6506C20.6395 11.8995 20.5115 12.1289 20.338 12.3218C20.1646 12.5148 19.9501 12.6665 19.7104 12.7658C19.4707 12.8651 19.2118 12.9094 18.9528 12.8957C18.6937 12.8819 18.4409 12.8103 18.2131 12.6861L17.845 12.4843C16.3214 11.6554 14.6554 13.3214 15.4854 14.8438L15.6861 15.2131C16.2158 16.1869 15.7134 17.3993 14.6506 17.7128L14.2469 17.8316C12.5844 18.322 12.5844 20.678 14.2469 21.1684L14.6506 21.2872C14.8995 21.3605 15.1289 21.4885 15.3218 21.662C15.5148 21.8354 15.6665 22.0499 15.7658 22.2896C15.8651 22.5293 15.9094 22.7882 15.8957 23.0472C15.8819 23.3063 15.8103 23.5591 15.6861 23.7869L15.4843 24.155C14.6554 25.6786 16.3214 27.3446 17.8438 26.5146L18.2131 26.3139C18.4409 26.1897 18.6937 26.1181 18.9528 26.1043C19.2118 26.0906 19.4707 26.1349 19.7104 26.2342C19.9501 26.3335 20.1646 26.4852 20.338 26.6782C20.5115 26.8711 20.6395 27.1005 20.7128 27.3494L20.8316 27.7531C21.322 29.4156 23.678 29.4156 24.1684 27.7531L24.2872 27.3494C24.3605 27.1005 24.4885 26.8711 24.662 26.6782C24.8354 26.4852 25.0499 26.3335 25.2896 26.2342C25.5293 26.1349 25.7882 26.0906 26.0472 26.1043C26.3063 26.1181 26.5591 26.1897 26.7869 26.3139L27.155 26.5157C28.6786 27.3446 30.3446 25.6786 29.5146 24.1562L29.3139 23.7869C29.1897 23.5591 29.1181 23.3063 29.1043 23.0472C29.0906 22.7882 29.1349 22.5293 29.2342 22.2896C29.3335 22.0499 29.4852 21.8354 29.6782 21.662C29.8711 21.4885 30.1005 21.3605 30.3494 21.2872L30.7531 21.1684C32.4156 20.678 32.4156 18.322 30.7531 17.8316L30.3494 17.7128C30.1005 17.6395 29.8711 17.5115 29.6782 17.338C29.4852 17.1646 29.3335 16.9501 29.2342 16.7104C29.1349 16.4707 29.0906 16.2118 29.1043 15.9528C29.1181 15.6937 29.1897 15.4409 29.3139 15.2131L29.5157 14.845C30.3446 13.3214 28.6786 11.6554 27.1562 12.4854L26.7869 12.6861C26.5591 12.8103 26.3063 12.8819 26.0472 12.8957C25.7882 12.9094 25.5293 12.8651 25.2896 12.7658C25.0499 12.6665 24.8354 12.5148 24.662 12.3218C24.4885 12.1289 24.3605 11.8995 24.2872 11.6506L24.1684 11.2469V11.2469ZM22.5 22.9794C21.5772 22.9794 20.6922 22.6128 20.0397 21.9603C19.3872 21.3078 19.0206 20.4228 19.0206 19.5C19.0206 18.5772 19.3872 17.6922 20.0397 17.0397C20.6922 16.3872 21.5772 16.0206 22.5 16.0206C23.4225 16.0206 24.3072 16.3871 24.9594 17.0394C25.6117 17.6916 25.9782 18.5763 25.9782 19.4988C25.9782 20.4213 25.6117 21.306 24.9594 21.9583C24.3072 22.6105 23.4225 22.977 22.5 22.977V22.9794Z" fill="white"/>
</g>
<defs>
<clipPath id="clip0_42_8">
<rect width="19" height="19" fill="white" transform="translate(13 10)"/>
</clipPath>
</defs>
</svg>
